<?xml version="1.0" encoding="UTF-8" standalone="no"?><!DOCTYPE svg PUBLIC "-//W3C//DTD SVG 1.1//EN" "http://www.w3.org/Graphics/SVG/1.1/DTD/svg11.dtd"><svg width="100%" height="100%" viewBox="0 0 3000 2000" version="1.1" xmlns="http://www.w3.org/2000/svg" xmlns:xlink="http://www.w3.org/1999/xlink" xml:space="preserve" xmlns:serif="http://www.serif.com/" style="fill-rule:evenodd;clip-rule:evenodd;stroke-linecap:round;stroke-linejoin:round;stroke-miterlimit:1.5;"><path d="M292.873,590.441c118.448,-189.913 161.014,-565.517 367.47,-191.104c262.198,475.501 -103.477,1202.751 -270.474,767.771c-19.298,-50.265 -63.441,-296.275 2.372,-466.213c71.004,-183.342 158.345,-192.403 217.303,-218.349c-42.778,603.445 -352.911,1160.753 -404.387,1253.255" style="fill:none;stroke:#000;stroke-width:4.17px;"/><path d="M737.623,1248.444c19.72,-22.614 39.441,-45.228 59.161,-67.842c4.921,191.285 0.153,190.2 17.222,379.83c-1.974,-21.008 -22.495,-239.362 -13.911,-263.333c10.14,-28.319 96.665,-59.102 105.983,-62.418" style="fill:none;stroke:#000;stroke-width:4.17px;"/><path d="M1099.61,1236.099c-11.904,23.13 -163.171,317.031 -39.593,320.599c58.766,1.696 104.255,-84.316 116.404,-290.531c3.229,-54.812 -3.411,-63.948 -60.084,-68.346" style="fill:none;stroke:#000;stroke-width:4.17px;"/><path d="M1245.53,1390.274c32.381,-13.096 175.009,-70.782 294.89,-313.856c92.381,-187.314 121.353,-349.364 126.993,-380.911c-29.14,62.699 -232.026,499.233 -231.173,829.554c0.043,16.633 29.984,19.761 139.334,-158.488" style="fill:none;stroke:#000;stroke-width:4.17px;"/><path d="M1777.714,1181.893c-114.043,172.938 -108.864,358.482 -26.59,276.593c33.062,-32.907 83.001,-136.713 90.476,-238.29c6.035,-82.019 -39.333,-62.077 -78.005,-62.994" style="fill:none;stroke:#000;stroke-width:4.17px;"/><path d="M2104.193,1152.877c-61.493,12.028 -177.653,283.639 -153.401,291.521c97.057,31.544 146.698,-233.016 151.053,-256.226c-19.1,106.163 -14.807,105.786 -40.047,197.343c-7.138,25.893 -132.061,479.033 -163.199,295.532c-25.452,-149.99 97.457,-236.819 125.747,-242.94c9.766,-2.113 145.199,-1.7 292.048,-251.764" style="fill:none;stroke:#000;stroke-width:4.17px;"/><path d="M2375.562,1197.945c-27.975,197.891 -34.891,207.383 -18.207,207.837c110.197,3.001 124.822,-171.651 126.344,-189.83c-9.605,63.756 -58.114,201.76 47.147,213.442" style="fill:none;stroke:#000;stroke-width:4.17px;"/><path d="M2629.926,1269.15c94.292,-8.558 133.926,-21.049 154.673,-114.62c-16.795,10.615 -128.117,80.972 -148.821,195.087c-28.03,154.498 117.744,83.762 135.753,79.739" style="fill:none;stroke:#000;stroke-width:4.17px;"/></svg>