<?xml version="1.0" encoding="UTF-8" standalone="no"?><!DOCTYPE svg PUBLIC "-//W3C//DTD SVG 1.1//EN" "http://www.w3.org/Graphics/SVG/1.1/DTD/svg11.dtd"><svg width="100%" height="100%" viewBox="0 0 12500 8334" version="1.1" xmlns="http://www.w3.org/2000/svg" xmlns:xlink="http://www.w3.org/1999/xlink" xml:space="preserve" xmlns:serif="http://www.serif.com/" style="fill-rule:evenodd;clip-rule:evenodd;stroke-linecap:round;stroke-linejoin:round;stroke-miterlimit:1.5;"><path d="M1220.304,2460.171c493.533,-791.304 670.892,-2356.321 1531.125,-796.267c1092.492,1981.254 -431.154,5011.462 -1126.975,3199.046c-80.408,-209.438 -264.337,-1234.479 9.883,-1942.554c295.85,-763.925 659.771,-801.679 905.429,-909.788c-178.242,2514.354 -1470.463,4836.471 -1684.946,5221.896" style="fill:none;stroke:#b4c4dc;stroke-width:17.38px;"/><path d="M3073.429,5201.85c82.167,-94.225 164.338,-188.45 246.504,-282.675c20.504,797.021 0.638,792.5 71.758,1582.625c-8.225,-87.533 -93.729,-997.342 -57.962,-1097.221c42.25,-117.996 402.771,-246.258 441.596,-260.075" style="fill:none;stroke:#b4c4dc;stroke-width:17.38px;"/><path d="M4581.708,5150.413c-49.6,96.375 -679.879,1320.962 -164.971,1335.829c244.858,7.067 434.396,-351.317 485.017,-1210.546c13.454,-228.383 -14.213,-266.45 -250.35,-284.775" style="fill:none;stroke:#b4c4dc;stroke-width:17.38px;"/><path d="M5189.708,5792.808c134.921,-54.567 729.204,-294.925 1228.708,-1307.733c384.921,-780.475 505.637,-1455.683 529.137,-1587.129c-121.417,261.246 -966.775,2080.138 -963.221,3456.475c0.179,69.304 124.933,82.337 580.558,-660.367" style="fill:none;stroke:#b4c4dc;stroke-width:17.38px;"/><path d="M7407.142,4924.554c-475.179,720.575 -453.6,1493.675 -110.792,1152.471c137.758,-137.112 345.838,-569.637 376.983,-992.875c25.146,-341.746 -163.888,-258.654 -325.021,-262.475" style="fill:none;stroke:#b4c4dc;stroke-width:17.38px;"/><path d="M8767.471,4803.654c-256.221,50.117 -740.221,1181.829 -639.171,1214.671c404.404,131.433 611.242,-970.9 629.388,-1067.608c-79.583,442.346 -61.696,440.775 -166.863,822.263c-29.742,107.887 -550.254,1995.971 -679.996,1231.383c-106.05,-624.958 406.071,-986.746 523.946,-1012.25c40.692,-8.804 604.996,-7.083 1216.867,-1049.017" style="fill:none;stroke:#b4c4dc;stroke-width:17.38px;"/><path d="M9898.175,4991.438c-116.562,824.546 -145.379,864.096 -75.863,865.988c459.154,12.504 520.092,-715.213 526.433,-790.958c-40.021,265.65 -242.142,840.667 196.446,889.342" style="fill:none;stroke:#b4c4dc;stroke-width:17.38px;"/><path d="M10958.025,5288.125c392.883,-35.658 558.025,-87.704 644.471,-477.583c-69.979,44.229 -533.821,337.383 -620.087,812.863c-116.792,643.742 490.6,349.008 565.638,332.246" style="fill:none;stroke:#b4c4dc;stroke-width:17.38px;"/></svg>